<?xml version="1.0" encoding="utf-8"?>
<!-- Generator: Adobe Illustrator 26.1.0, SVG Export Plug-In . SVG Version: 6.00 Build 0)  -->
<svg version="1.1" xmlns="http://www.w3.org/2000/svg" xmlns:xlink="http://www.w3.org/1999/xlink" x="0px" y="0px"
	 viewBox="0 0 800 800" style="enable-background:new 0 0 800 800;" xml:space="preserve">
<style type="text/css">
	
		.st0{fill:none;stroke:#FFFFFF;stroke-width:10;stroke-linecap:round;stroke-linejoin:round;stroke-miterlimit:8;stroke-opacity:0.9;}
	.st1{fill:#FFFFFF;}
</style>
<g id="Слой_1">
	<path class="st0" d="M370.6,386.4c85.2-105-45.6-90.6-64.5-100.1c-6.7-3.3-13.2-35.5-28.1-28.1c-22.8,11.4-20.9,70.9-23.4,90.8
		c-1.3,10.8-16.4,26.3-21.4,37.4c-7.9,17.8-16.6,39-31.1,61.1c-14.5,22.1-44.9,39.3-60.1,56.2c-64.7,71.9-37,156.5,34.1,211.2
		c71.9,55.3,372,34.7,287.2-92.6"/>
	<path class="st0" d="M337,435.1c21.1,77.2-9.2,157.8-9.2,233.4c0,8.7,17.3,0.3,25.7,1.9"/>
	<path class="st0" d="M226.9,516.2c17,2.5,32.5,15,44.5,26.6c59.8,58-16.6,97-20.8,117.5c-1,4.6,18.8,7.8,22.7,8.3"/>
	<path class="st0" d="M312,262.3c11.5-10.8,13.7,8.1,15.8,18.5"/>
</g>
<g id="Слой_2">
	<g>
		<g>
			<g>
				<path class="st1" d="M596.1,309.7c-34.4,0-66.8-13.3-91.2-37.5c-24.4-24.2-37.8-56.5-37.8-90.9c0-34,13.3-66.2,37.3-90.5
					C528.6,66.4,560.6,53,594.4,53h0.1c1.8,0,3,0.5,3.6,1.6c0.7,1.3,0.5,2.7-0.4,3.9c-16.5,21.3-25.2,46.8-25.2,73.7
					c0,66.7,54.3,120.9,121,120.9l0.2,0l1.4-0.1c1.5,0,3,0.9,3.6,2.2c0.7,1.4,0.5,3-0.4,4.2C673.7,291.4,636.4,309.7,596.1,309.7z
					 M577.7,61.2c-58.5,9-102.6,60.4-102.6,119.6c0,66.7,54.3,121,121,121c31.9,0,62-12.3,84.6-34.6l6.1-6l-8.5-1
					c-64.9-7.6-113.9-62.7-113.9-128.1c0-22.8,6-45.2,17.4-64.7l4.4-7.5L577.7,61.2z"/>
			</g>
			<g>
				<path class="st1" d="M602.2,286.1c-53.3,0-98.7-38.1-107.8-90.5c-0.4-2.2,1.1-4.3,3.3-4.7c2.2-0.4,4.3,1.1,4.7,3.3
					c8.5,48.6,50.4,83.8,99.8,83.8c2.2,0,4.1,1.8,4.1,4.1C606.3,284.3,604.5,286.1,602.2,286.1z"/>
			</g>
			<g>
				<path class="st1" d="M497,186.9c-2.2,0-3.9-2-4-4.2c-0.1-1.9-0.1-3.9-0.1-5.8c0-2.2,1.8-4.1,4.1-4.1s4.1,1.8,4.1,4
					c0,1.8,0,3.8,0.1,5.6c0.1,2.2-1.6,4.5-3.9,4.5C497.1,186.9,497,186.9,497,186.9z"/>
			</g>
			<circle class="st1" cx="614.6" cy="123.7" r="7.2"/>
			<circle class="st1" cx="661.6" cy="89" r="7.2"/>
			<circle class="st1" cx="645.9" cy="153.8" r="7.2"/>
		</g>
	</g>
</g>
<g id="Слой_3">
</g>
</svg>
